<mxfile host="app.diagrams.net" modified="2023-06-06T06:46:59.608Z" agent="Mozilla/5.0 (Windows NT 10.0; Win64; x64) AppleWebKit/537.36 (KHTML, like Gecko) Chrome/113.0.0.0 Safari/537.36" version="21.3.7" etag="QreVd8LFD6h8Z68da1LV" type="github">
  <diagram name="Page-1" id="YtGXfAVXYYkeQ-4COyVI">
    <mxGraphModel>
      <root>
        <mxCell id="0" />
        <mxCell id="1" parent="0" />
      </root>
    </mxGraphModel>
  </diagram>
</mxfile>
